<svg width="43" height="43" viewBox="0 0 43 43" fill="none" xmlns="http://www.w3.org/2000/svg">
<path d="M21.5 3.87109C27.243 3.87109 27.9155 3.88926 30.1872 3.99831C32.2773 4.08918 33.4222 4.45266 34.1855 4.74345C35.1851 5.12511 35.9121 5.59763 36.6572 6.34277C37.4024 7.08791 37.8749 7.81488 38.2565 8.81445C38.5473 9.57777 38.8926 10.7046 39.0017 12.8128C39.1107 15.0845 39.1289 15.757 39.1289 21.5C39.1289 27.243 39.1107 27.9155 39.0017 30.1872C38.9108 32.2773 38.5473 33.4222 38.2565 34.1855C37.8749 35.1851 37.4024 35.9121 36.6572 36.6572C35.9121 37.4024 35.1851 37.8749 34.1855 38.2565C33.4222 38.5473 32.2954 38.8926 30.1872 39.0017C27.9155 39.1107 27.243 39.1289 21.5 39.1289C15.757 39.1289 15.0845 39.1107 12.8128 39.0017C10.7227 38.9108 9.57777 38.5473 8.81445 38.2565C7.81488 37.8749 7.08791 37.4024 6.34277 36.6572C5.59763 35.9121 5.12511 35.1851 4.74345 34.1855C4.45266 33.4222 4.10735 32.2954 3.99831 30.1872C3.88926 27.9155 3.87109 27.243 3.87109 21.5C3.87109 15.757 3.88926 15.0845 3.99831 12.8128C4.08918 10.7227 4.45266 9.57777 4.74345 8.81445C5.12511 7.81488 5.59763 7.10609 6.34277 6.34277C7.10609 5.59763 7.81488 5.12511 8.81445 4.74345C9.57777 4.45266 10.7227 4.08918 12.8128 3.99831C15.0845 3.88926 15.757 3.87109 21.5 3.87109ZM21.5 0C15.6661 0 14.921 0.0181741 12.631 0.127219C10.3411 0.236264 8.77811 0.599746 7.41505 1.1268C5.99746 1.67202 4.79797 2.41716 3.59848 3.59848C2.41716 4.79797 1.67202 5.99746 1.1268 7.41505C0.599746 8.77811 0.236264 10.3411 0.127219 12.631C0.0181741 14.921 0 15.6661 0 21.5C0 27.3339 0.0181741 28.079 0.127219 30.369C0.236264 32.6589 0.599746 34.2219 1.1268 35.585C1.67202 37.0025 2.41716 38.202 3.59848 39.4015C4.79797 40.601 5.99746 41.328 7.41505 41.8732C8.77811 42.4003 10.3411 42.7637 12.631 42.8728C14.921 42.9818 15.6479 43 21.5 43C27.3339 43 28.079 42.9818 30.369 42.8728C32.6589 42.7637 34.2219 42.4003 35.585 41.8732C37.0025 41.328 38.202 40.5828 39.4015 39.4015C40.601 38.202 41.328 37.0025 41.8732 35.585C42.4003 34.2219 42.7637 32.6589 42.8728 30.369C42.9818 28.079 43 27.3521 43 21.5C43 15.6661 42.9818 14.921 42.8728 12.631C42.7637 10.3411 42.4003 8.77811 41.8732 7.41505C41.328 5.99746 40.5828 4.79797 39.4015 3.59848C38.202 2.39899 37.0025 1.67202 35.585 1.1268C34.2219 0.599746 32.6589 0.236264 30.369 0.127219C28.079 0.0181741 27.3339 0 21.5 0Z" fill="#FF8500"/>
<path d="M21.5001 10.4683C15.3936 10.4683 10.4502 15.4117 10.4502 21.5182C10.4502 27.6247 15.3936 32.5681 21.5001 32.5681C27.6066 32.5681 32.5499 27.6247 32.5499 21.5182C32.5499 15.4117 27.6066 10.4683 21.5001 10.4683ZM21.5001 28.6606C17.5381 28.6606 14.3395 25.4438 14.3395 21.5C14.3395 17.5381 17.5563 14.3394 21.5001 14.3394C25.462 14.3394 28.6607 17.5562 28.6607 21.5C28.6607 25.462 25.462 28.6606 21.5001 28.6606Z" fill="#FF8500"/>
<path d="M35.5667 10.0321C35.5667 11.4497 34.4036 12.6128 32.986 12.6128C31.5684 12.6128 30.4053 11.4497 30.4053 10.0321C30.4053 8.6145 31.5684 7.45135 32.986 7.45135C34.4036 7.45135 35.5667 8.59633 35.5667 10.0321Z" fill="#FF8500"/>
</svg>
