<svg width="41" height="41" viewBox="0 0 41 41" fill="none" xmlns="http://www.w3.org/2000/svg">
<path d="M9.27987 13.6724H0.810791V41H9.27987V13.6724Z" fill="#FF8500"/>
<path d="M5.0021 10.0862C7.76188 10.0862 10.0042 7.82759 10.0042 5.03448C10.0042 2.24138 7.77913 0 5.0021 0C2.24232 0 0 2.25862 0 5.05172C0 7.84483 2.24232 10.0862 5.0021 10.0862Z" fill="#FF8500"/>
<path d="M22.8027 26.6552C22.8027 22.8103 24.5793 20.5172 27.96 20.5172C31.0647 20.5172 32.5654 22.7069 32.5654 26.6552C32.5654 30.5862 32.5654 41 32.5654 41H40.9827C40.9827 41 40.9827 31.0172 40.9827 23.6896C40.9827 16.3621 36.8258 12.8276 31.0303 12.8276C25.2347 12.8276 22.7854 17.3448 22.7854 17.3448V13.6724H14.6958V41H22.8199C22.8027 41 22.8027 30.8621 22.8027 26.6552Z" fill="#FF8500"/>
</svg>
