<svg width="50" height="41" viewBox="0 0 50 41" fill="none" xmlns="http://www.w3.org/2000/svg">
<g clip-path="url(#clip0)">
<path d="M0 36.3467C4.5405 39.2779 9.93462 41 15.7283 41C34.7802 41 45.5321 24.7685 44.8965 10.2225C46.8943 8.75693 48.6379 6.94325 50.0182 4.8731C48.1838 5.6975 46.2041 6.2471 44.1337 6.50357C46.2586 5.22118 47.875 3.20599 48.6379 0.769437C46.6582 1.96023 44.4606 2.82127 42.1177 3.27927C40.247 1.26407 37.5772 0 34.6168 0C27.9876 0 23.1202 6.22878 24.6277 12.714C16.1097 12.2744 8.53614 8.15237 3.4871 1.88695C0.799128 6.54021 2.08863 12.6224 6.66546 15.7185C4.97639 15.6635 3.39629 15.2055 2.01598 14.4178C1.90701 19.2176 5.30331 23.706 10.2434 24.6953C8.79041 25.0983 7.21032 25.1899 5.61206 24.8785C6.91972 29.0004 10.6974 31.9866 15.2016 32.0599C10.879 35.4674 5.4486 36.9879 0 36.3467Z" fill="#FF8500"/>
</g>
<defs>
<clipPath id="clip0">
<rect width="50" height="41" fill="white"/>
</clipPath>
</defs>
</svg>
