<svg width="37" height="43" viewBox="0 0 37 43" fill="none" xmlns="http://www.w3.org/2000/svg">
<g clip-path="url(#clip0)">
<path d="M37.0001 0C37.0001 7.19076 37.0001 14.3634 37.0001 21.5542C36.9094 21.6445 36.8006 21.7168 36.7099 21.8071C32.2662 26.2336 27.8408 30.642 23.3971 35.0685C23.1976 35.2672 22.9981 35.3576 22.7079 35.3576C20.8942 35.3395 19.0986 35.3576 17.2849 35.3395C17.031 35.3395 16.8677 35.4118 16.6863 35.5924C14.3285 37.9592 11.9707 40.308 9.61282 42.6567C9.52213 42.7471 9.41331 42.8374 9.25007 43C9.25007 40.4164 9.25007 37.905 9.25007 35.3395C6.1486 35.3395 3.0834 35.3395 -0.0180664 35.3395C-0.0180664 35.1769 -0.0180664 35.0504 -0.0180664 34.924C-0.0180664 25.9445 -0.0180664 16.9832 -0.0180664 8.00378C-0.0180664 7.75084 0.0544826 7.58824 0.235855 7.40756C2.64811 5.05882 5.04223 2.69202 7.41821 0.307143C7.61772 0.0903361 7.81723 0 8.12556 0C17.7564 0 27.3873 0 37.0001 0ZM16.1966 31.4008C16.2511 31.437 16.3055 31.4731 16.3599 31.5092C16.4143 31.4008 16.4687 31.2563 16.5412 31.166C18.1373 29.558 19.7515 27.95 21.3658 26.342C21.529 26.1794 21.6922 26.1071 21.928 26.1071C23.7599 26.1071 25.5917 26.1071 27.4236 26.1252C27.6775 26.1252 27.8408 26.0529 28.0221 25.8723C29.9084 23.9752 31.8128 22.0962 33.6991 20.1811C33.826 20.0546 33.9167 19.8197 33.9167 19.621C33.9349 14.237 33.9349 8.83487 33.9349 3.45084C33.9349 3.32437 33.9349 3.1979 33.9349 3.0895C25.6824 3.0895 17.4844 3.0895 9.30448 3.0895C9.30448 10.7681 9.30448 18.4286 9.30448 26.1252C11.6079 26.1252 13.8932 26.1252 16.2148 26.1252C16.1966 27.9139 16.1966 29.6664 16.1966 31.4008Z" fill="#FF8500"/>
<path d="M20.8036 17.6697C19.7879 17.6697 18.7903 17.6697 17.7747 17.6697C17.7747 14.6164 17.7747 11.563 17.7747 8.49158C18.7722 8.49158 19.7698 8.49158 20.8036 8.49158C20.8036 11.5269 20.8036 14.5802 20.8036 17.6697Z" fill="#FF8500"/>
<path d="M29.2917 8.47351C29.2917 11.5449 29.2917 14.5983 29.2917 17.6517C28.276 17.6517 27.2785 17.6517 26.2446 17.6517C26.2446 14.5802 26.2446 11.5449 26.2446 8.47351C27.2422 8.47351 28.2397 8.47351 29.2917 8.47351Z" fill="#FF8500"/>
</g>
<defs>
<clipPath id="clip0">
<rect width="37" height="43" fill="white"/>
</clipPath>
</defs>
</svg>
