<svg width="253" height="56" viewBox="0 0 253 56" fill="none" xmlns="http://www.w3.org/2000/svg">
<path d="M233.632 22.4725L237.626 7.81302L253 7.95398L249.005 22.6135L233.632 22.4725Z" fill="white"/>
<path d="M0 40.6357C0.544737 38.5013 1.29123 36.5279 3.59123 35.6016C4.86228 35.0982 6.09298 34.4538 7.64649 33.749C6.92018 33.1852 6.39561 32.6616 5.77018 32.2992C3.2886 30.9097 2.90526 30.1043 3.65175 27.3657C4.23684 25.1507 4.82193 22.9356 5.48772 20.7407C5.60877 20.3582 6.09298 19.8346 6.41579 19.8145C9.54298 19.7541 12.6702 19.7742 16.0395 19.7742C15.5956 21.4858 15.2123 22.9558 14.8289 24.4258C14.5263 25.5131 14.2035 26.5804 13.9009 27.6677C13.2351 30.0439 13.6789 30.9702 15.9184 32.1784C16.6447 32.5811 17.2904 33.0845 18.1781 33.6886C16.4833 34.4337 15.0912 35.0176 13.7395 35.662C12.0044 36.4675 10.9149 37.7763 10.693 39.7296C10.35 42.9716 12.9728 45.2873 16.5035 44.7436C19.893 44.2201 22.3746 42.4078 23.4439 39.0449C23.9886 37.3535 25.0579 36.3466 26.6316 35.7023C27.8623 35.1989 29.093 34.6954 30.707 34.0309C29.6175 33.2255 28.8711 32.6415 28.064 32.0777C26.3491 30.8896 25.9254 29.8425 26.45 27.8691C27.0754 25.5333 27.7211 23.1974 28.4272 20.8817C28.5281 20.5394 28.9719 20.036 29.2746 20.036C32.4421 19.9756 35.6096 19.9957 38.9789 19.9957C38.1921 22.8954 37.4658 25.5937 36.7395 28.2718C36.0333 30.8695 36.3965 31.7756 38.7167 33.2053C39.3421 33.5879 39.8667 34.1316 40.6939 34.7961C39.1807 35.4405 38.0105 35.9842 36.8202 36.4272C35.0044 37.1118 33.9553 38.3603 33.4711 40.2531C32.3816 44.5221 31.1711 48.7709 30.0412 53.0198C29.8193 53.8856 29.5167 54.2884 28.4877 54.2481C25.5421 54.1676 22.5763 54.2078 19.55 54.2078C19.5096 53.8252 19.4895 53.5232 19.4491 53.1406C16.1404 54.0669 12.8921 54.4696 9.58333 53.7044C4.62018 52.5566 1.27105 49.7576 0.22193 44.5825C0.201754 44.4617 0.100877 44.361 0.0403509 44.2402C0 43.0521 0 41.8439 0 40.6357Z" fill="#FF8500"/>
<path d="M202.481 56C201.533 55.9194 200.584 55.8389 199.535 55.7382C199.596 55.3758 199.616 55.0133 199.717 54.6508C200.342 52.315 201.048 49.9791 201.613 47.6433C201.815 46.8177 202.158 46.5559 203.026 46.5559C207.424 46.6163 211.802 46.6163 216.2 46.6163C216.745 46.6163 217.451 46.5962 217.794 46.274C218.278 45.831 218.762 45.0859 218.722 44.502C218.702 44.1395 217.733 43.5958 217.148 43.5555C215.191 43.4347 213.234 43.5354 211.277 43.4951C209.159 43.4549 207.141 43.0119 205.366 41.7835C203.671 40.5955 203.651 39.5081 205.346 38.3804C206.092 37.877 206.899 37.4944 207.888 36.9306C207.222 36.4674 206.697 36.0647 206.112 35.7224C205.668 35.4606 205.164 35.3197 204.68 35.0982C202.279 33.9302 201.754 32.6213 203.046 30.2855C205.911 25.05 210.45 22.11 216.341 21.7677C221.486 21.4657 226.671 21.7073 231.977 21.7073C231.13 24.8285 230.404 27.6677 229.536 30.4869C229.435 30.8091 228.709 31.1312 228.265 31.1312C224.008 31.1312 219.751 31.0708 215.494 31.0306C213.799 31.0104 212.71 31.6145 212.669 32.5207C212.649 33.4067 213.92 34.1517 215.575 34.1316C220.356 34.0309 225.118 34.2927 229.738 35.7023C230.787 36.0244 231.816 36.4473 233.107 36.9105C232.199 37.5951 231.513 38.0985 230.827 38.6019C229.879 39.2866 229.274 40.2531 229.435 41.3808C230.283 47.0996 225.178 53.5635 218.016 55.4764C217.35 55.6577 216.704 55.8188 216.039 56C211.519 56 207 56 202.481 56Z" fill="#FF8500"/>
<path d="M56.6124 0C57.1571 0.0805466 57.722 0.161093 58.4282 0.261776C57.6211 3.34268 56.8141 6.36318 55.9869 9.38367C55.9264 9.62531 55.5027 9.92736 55.2606 9.92736C52.0527 9.96764 48.8448 9.9475 45.5159 9.9475C46.3229 6.927 47.0896 4.10787 47.836 1.24847C47.9369 0.845739 47.9571 0.402733 48.0176 0C50.8825 0 53.7474 0 56.6124 0Z" fill="#FF8500"/>
<path d="M107.293 0.422883C106.264 4.18843 105.316 7.69221 104.347 11.196C103.399 14.6595 102.471 18.123 101.482 21.7274C102.834 21.4657 104.045 21.1636 105.255 21.0025C109.956 20.4186 114.374 21.0428 118.006 24.4258C119.963 26.2582 121.053 28.5739 121.254 31.1917C121.416 33.1852 122.445 34.3531 124.099 35.1989C124.886 35.6217 125.632 36.1654 126.621 36.7897C124.845 37.575 123.453 38.1388 122.102 38.7832C120.588 39.5081 119.58 40.6358 119.156 42.3474C118.167 46.2337 117.017 50.1 116.009 53.9863C115.787 54.8321 115.464 55.1744 114.516 55.1341C111.53 55.0536 108.524 55.114 105.336 55.114C106.324 51.5095 107.212 48.2071 108.12 44.8846C108.221 44.5423 108.362 44.2201 108.382 43.8778C108.745 40.4344 110.844 38.6221 113.991 37.6757C114.617 37.4944 115.141 36.9507 115.706 36.5883C115.181 36.1251 114.697 35.6217 114.153 35.1989C112.922 34.2524 111.55 33.447 110.46 32.3797C107.777 29.762 104.166 29.3391 101.119 31.4736C99.5859 32.561 99.5455 33.5275 101.059 34.5948C101.765 35.078 102.531 35.4606 103.54 36.0647C102.269 36.689 101.22 37.2729 100.131 37.6958C97.8508 38.602 96.3376 40.0317 95.7525 42.5689C94.885 46.3948 93.735 50.1805 92.6455 53.9461C92.5446 54.3287 92.0403 54.8724 91.7174 54.8724C88.671 54.8925 85.6245 54.8119 82.5982 54.7515C82.4771 54.7515 82.3561 54.671 82.1543 54.5703C83.385 50.1 84.5552 45.6296 85.8464 41.1996C86.3911 39.3269 88.0455 38.5214 89.6797 37.7562C90.7894 37.2528 91.899 36.7091 93.2709 36.0446C92.1815 35.4606 91.4148 35.0982 90.6885 34.6552C88.449 33.306 88.1464 32.5408 88.8324 30.0439C90.6683 23.3182 92.4841 16.5926 94.3201 9.8871C95.1069 7.00756 95.8736 4.12802 96.7209 1.26862C96.8218 0.906162 97.3464 0.443019 97.6894 0.422883C100.837 0.382609 103.964 0.422883 107.293 0.422883Z" fill="#FF8500"/>
<path d="M154.968 22.8954C154.867 20.8817 156.239 21.1636 157.53 21.1636C160.213 21.2039 162.897 21.1636 165.741 21.1636C164.813 24.5667 163.946 27.6879 163.098 30.8091C162.453 33.1449 162.897 34.0712 165.035 35.2391C165.782 35.6419 166.468 36.1453 167.456 36.7695C165.883 37.4542 164.652 37.9979 163.401 38.5415C161.464 39.3671 160.314 40.7163 159.81 42.8105C158.862 46.717 157.691 50.5631 156.683 54.4495C156.481 55.2348 156.158 55.4765 155.371 55.4563C152.345 55.4161 149.298 55.4362 146.151 55.4362C146.252 54.7314 146.312 54.2481 146.393 53.7447C144.355 54.2079 142.419 54.812 140.441 55.0335C134.651 55.6778 129.325 54.6911 125.33 49.959C123.716 48.046 122.889 45.7706 122.687 43.2938C122.465 40.6962 123.07 39.6692 125.431 38.5617C126.661 37.9777 127.953 37.4743 129.587 36.7695C128.659 36.105 127.973 35.5613 127.247 35.0982C125.612 34.0511 125.31 32.9838 126.44 31.4333C131.504 24.3855 141.733 19.3312 151.175 21.5865C152.385 21.9288 153.535 22.4121 154.968 22.8954ZM139.937 36.8501C139.332 37.0917 139.15 37.1723 138.948 37.2729C137.435 37.9979 135.882 38.6422 134.429 39.5081C133.36 40.1525 133.239 41.1996 133.783 42.3474C134.57 44.0389 135.882 45.1262 137.637 45.5692C142.096 46.6768 145.647 45.0255 148.794 41.9245C150.166 40.5955 151.82 39.5081 153.434 38.461C154.403 37.8368 155.573 37.4944 156.965 36.8702C156.037 36.3064 155.432 35.9439 154.826 35.5613C153.011 34.4739 151.114 33.5074 149.419 32.2589C146.151 29.8425 141.188 29.8022 138.02 32.3797C136.769 33.4067 136.81 34.333 138.121 35.2995C138.686 35.7426 139.211 36.2258 139.937 36.8501Z" fill="#FF8500"/>
<path d="M202.703 21.4858C202.057 23.8418 201.512 25.936 200.947 28.0101C200.746 28.7148 200.564 29.4398 200.362 30.1445C199.474 33.4268 199.737 33.9907 202.743 35.6016C203.288 35.9036 203.772 36.3466 204.478 36.8702C203.167 37.4139 202.117 37.877 201.068 38.2798C198.708 39.1859 197.296 40.7566 196.71 43.3139C195.843 47.2003 194.693 51.0263 193.603 54.8522C193.503 55.2147 192.978 55.7181 192.655 55.7181C189.528 55.7785 186.401 55.7584 183.253 55.7584C183.213 55.3556 183.173 55.0737 183.132 54.7515C182.931 54.7717 182.749 54.7717 182.608 54.8119C178.855 55.8993 175.082 56.0403 171.35 54.7113C165.903 52.758 162.957 47.744 163.885 42.0856C164.147 40.4545 165.317 39.5282 166.649 38.8637C168.001 38.1791 169.413 37.6555 171.128 36.9105C170.442 36.3668 169.917 35.8432 169.292 35.5009C166.528 34.0108 166.185 33.306 166.992 30.3056C167.799 27.3456 168.606 24.3855 169.413 21.3448C171.148 21.3448 172.823 21.3448 174.517 21.3448C176.212 21.3448 177.907 21.3448 179.743 21.3448C178.896 24.4862 178.089 27.4865 177.282 30.4667C176.515 33.2859 176.878 34.0712 179.481 35.4606C180.106 35.8029 180.671 36.2661 181.518 36.8702C180.61 37.2528 180.005 37.4743 179.4 37.7562C178.27 38.2798 177.06 38.7228 176.031 39.4275C173.71 41.0385 173.811 43.8576 176.212 45.4283C177.705 46.415 179.339 46.5761 181.074 46.1331C183.274 45.5692 185.231 44.5221 186.239 42.5085C187.531 39.9108 189.689 38.6221 192.252 37.7159C192.776 37.5347 193.281 37.2931 194.148 36.9507C193.381 36.3668 192.837 35.8432 192.211 35.5009C189.548 34.0712 189.185 33.306 189.952 30.4063C190.658 27.7684 191.344 25.1305 192.09 22.5128C192.191 22.1302 192.595 21.5663 192.877 21.5663C196.105 21.4455 199.313 21.4858 202.703 21.4858Z" fill="#FF8500"/>
<path d="M56.7131 20.3582C60.1832 20.3582 63.5727 20.3582 67.1034 20.3582C66.4578 22.7141 65.8929 24.9694 65.2271 27.1845C64.7429 28.8357 64.4604 30.4466 66.0139 31.7152C67.6078 33.0241 70.1499 33.2456 71.9052 32.1985C73.6403 31.1715 74.9315 29.7821 75.4359 27.7282C75.9604 25.5735 76.5657 23.4592 77.1911 21.3247C77.292 20.9824 77.756 20.4991 78.0587 20.4991C81.2262 20.4387 84.3938 20.4588 87.8236 20.4588C86.7745 23.9425 85.9473 27.265 84.7973 30.4667C83.8087 33.2456 83.7683 33.6081 86.1087 35.3801C86.2902 35.5009 86.4315 35.6419 86.835 35.9842C85.7052 36.4272 84.7569 36.8903 83.7683 37.1924C81.0043 38.0381 80.4394 38.9443 80.8025 41.7231C80.9639 42.9515 81.0446 44.2805 80.8025 45.4685C80.1367 48.5494 79.2692 51.5901 78.5025 54.6508C75.0122 54.6508 71.6227 54.6508 68.1122 54.6508C68.778 52.2345 69.2824 49.8583 70.0692 47.5829C71.3403 43.8173 68.3543 41.4614 64.8639 42.3272C62.2613 42.9716 60.506 44.5825 59.7797 47.2204C59.1946 49.3549 58.6499 51.4894 58.0043 53.6037C57.8832 53.9662 57.3789 54.4696 57.0359 54.4696C53.9087 54.53 50.7815 54.5099 47.4324 54.5099C48.8648 50.0597 49.2482 45.4484 51.992 41.6224C53.2631 39.8504 54.8973 38.7228 56.935 37.9777C58.1657 37.5347 59.3157 36.8299 60.849 36.0849C59.7999 35.3801 59.1139 34.8767 58.4078 34.4538C57.6411 33.9907 56.8139 33.5879 56.0271 33.1248C54.5139 32.2589 53.9692 30.9098 54.3727 29.2585C55.099 26.2783 55.9262 23.3384 56.7131 20.3582Z" fill="#FF8500"/>
<path d="M43.7808 54.2884C40.2703 54.2884 36.901 54.2884 33.4106 54.2884C34.7624 49.2945 36.0536 44.4617 37.4054 39.6289C37.8492 38.0784 39.1405 37.3132 40.5124 36.7091C41.7229 36.1855 42.9536 35.662 44.487 34.9975C43.4782 34.2726 42.7721 33.6886 41.9852 33.165C40.1089 31.9367 39.7457 31.0306 40.3106 28.8961C41.0168 26.2985 41.6826 23.7008 42.4492 21.1233C42.5501 20.7609 43.0343 20.3984 43.4177 20.2373C43.801 20.0964 44.265 20.2172 44.7089 20.2172C47.3922 20.2172 50.0957 20.2172 52.9808 20.2172C52.2142 23.1169 51.4878 25.8554 50.7615 28.594C50.701 28.7954 50.6607 29.0169 50.5799 29.2183C49.7729 31.5944 49.894 32.5609 52.8598 34.1517C53.3238 34.3934 53.7677 34.635 54.5142 35.0378C53.9896 35.5009 53.6264 35.9036 53.1826 36.2057C52.8396 36.4473 52.3957 36.5681 51.9922 36.689C49.2282 37.6152 47.5536 39.347 46.908 42.3474C46.101 46.3747 44.8501 50.3013 43.7808 54.2884Z" fill="#FF8500"/>
</svg>
